# xmcd
#
# Track frame offsets: 
#        150
#        21731
#        43321
#        64585
#        83410
#        106867
#        127870
#        147191
#        168177
#        188516
#        208421
#        233251
#        253226
#        274623
#        295913
#        314883
#        335700
#
# Disc length: 4798 seconds
#
# Revision: 0
# Processed by: cddbd v1.5.2PL0 Copyright (c) Steve Scherf et al.
# Submitted via: ExactAudioCopy v1.0b3
#
DISCID=fa12bc11
DTITLE=Various Artist - 50 Techno Trance Anthems Vol. 2 - CD 3
DYEAR=1900
DGENRE=
TTITLE0=Dutch Trance Force - God Is A DJ (DJ Cobra Mix)
TTITLE1=Tony Marque - Mirror (Original Mix)
TTITLE2=Russenmafia - Afraid Of Us (Schwarze Puppen Mix)
TTITLE3=Rough and Smart - Silent Scream (Krämer and Pogadl Rmx)
TTITLE4=Hennes and Cold - Pressure (Xtd)
TTITLE5=Mikado - Sex-O-Matic (DJ Wag Mix)
TTITLE6=Clinically Dead - Clinically Dead (Alex Butcher Mix)
TTITLE7=Protech - Free Your Mind (Y.O.M.C. Club Mix)
TTITLE8=DJ Sakin Vs. Wittendörfer - Nitro (DJ Sakin Club Mix)
TTITLE9=Stoneface and Terminal - Super Nature (Guiseppe Ottaviani Rmx)
TTITLE10=Skysurfer Feat. Talla 2XLC - Terra Australis (Xtd Mix)
TTITLE11=Factoria - Revive (Original Mix)
TTITLE12=Rainmaker - Café Del Mar (Part 2 Xtd)
TTITLE13=Miss Shiva Vs. Miss Tricky - Sunrize Theme (Canis Vs. Doug La
TTITLE13=urent Mix)
TTITLE14=Tillman Uhrmacher - On The Run (Ocean To Shore Club Xtd)
TTITLE15=Joy Kitikonti - Dirty Summer (Blow Mix)
TTITLE16=Benny Benassi - Able To Love (Satisfaction Mix)
EXTD=
EXTT0=
EXTT1=
EXTT2=
EXTT3=
EXTT4=
EXTT5=
EXTT6=
EXTT7=
EXTT8=
EXTT9=
EXTT10=
EXTT11=
EXTT12=
EXTT13=
EXTT14=
EXTT15=
EXTT16=
PLAYORDER=
